<svg width="500" height="100" viewBox="0 0 500 100" fill="none" xmlns="http://www.w3.org/2000/svg">
<path d="M25.356 76.76C21.9107 76.76 18.972 76.4053 16.54 75.696C14.108 74.936 12.1067 73.9987 10.536 72.884C9.016 71.7693 7.90133 70.6293 7.192 69.464C6.48267 68.248 6.10267 67.184 6.052 66.272C6.00133 65.7147 6.15333 65.2587 6.508 64.904C6.91333 64.4987 7.344 64.296 7.8 64.296H18.82C18.8707 64.296 18.9467 64.3213 19.048 64.372C19.1493 64.372 19.2507 64.4227 19.352 64.524C20.0107 64.7267 20.6187 65.056 21.176 65.512C21.784 65.968 22.4427 66.3733 23.152 66.728C23.912 67.0827 24.7987 67.26 25.812 67.26C26.6733 67.26 27.4333 67.0827 28.092 66.728C28.8013 66.3227 29.156 65.7653 29.156 65.056C29.156 64.448 28.9533 63.916 28.548 63.46C28.1933 63.004 27.408 62.5733 26.192 62.168C24.976 61.712 23.0253 61.2307 20.34 60.724C17.8573 60.2173 15.5773 59.4827 13.5 58.52C11.4733 57.5067 9.852 56.164 8.636 54.492C7.47067 52.82 6.888 50.768 6.888 48.336C6.888 46.2587 7.572 44.2573 8.94 42.332C10.308 40.4067 12.3347 38.836 15.02 37.62C17.756 36.3533 21.1 35.72 25.052 35.72C28.0413 35.72 30.676 36.0747 32.956 36.784C35.2867 37.4933 37.2373 38.38 38.808 39.444C40.4293 40.508 41.6453 41.648 42.456 42.864C43.3173 44.08 43.7733 45.1693 43.824 46.132C43.8747 46.6893 43.7227 47.1707 43.368 47.576C43.0133 47.9307 42.608 48.108 42.152 48.108H32.196C32.044 48.108 31.8667 48.108 31.664 48.108C31.512 48.0573 31.3853 47.9813 31.284 47.88C30.5747 47.728 29.916 47.4493 29.308 47.044C28.7507 46.588 28.1427 46.1827 27.484 45.828C26.8253 45.4227 25.9893 45.22 24.976 45.22C24.1147 45.22 23.4053 45.4227 22.848 45.828C22.3413 46.2333 22.088 46.7653 22.088 47.424C22.088 47.9813 22.2653 48.488 22.62 48.944C22.9747 49.4 23.7853 49.8307 25.052 50.236C26.3187 50.6413 28.32 51.072 31.056 51.528C34.6027 52.0853 37.44 53.0227 39.568 54.34C41.696 55.6067 43.216 57.1013 44.128 58.824C45.04 60.5467 45.496 62.2693 45.496 63.992C45.496 66.576 44.7107 68.8307 43.14 70.756C41.62 72.6813 39.34 74.176 36.3 75.24C33.3107 76.2533 29.6627 76.76 25.356 76.76ZM65.8842 76.76C63.1482 76.76 60.6402 76.1267 58.3602 74.86C56.1309 73.5933 54.3575 71.6933 53.0402 69.16C51.7229 66.6267 51.0642 63.4347 51.0642 59.584V38.456C51.0642 37.8987 51.2415 37.4427 51.5962 37.088C52.0015 36.6827 52.4829 36.48 53.0402 36.48H65.0482C65.6055 36.48 66.0615 36.6827 66.4162 37.088C66.8215 37.4427 67.0242 37.8987 67.0242 38.456V59.052C67.0242 62.9533 68.7722 64.904 72.2682 64.904C73.9402 64.904 75.2322 64.3973 76.1442 63.384C77.1069 62.3707 77.5882 60.9267 77.5882 59.052V38.456C77.5882 37.8987 77.7655 37.4427 78.1202 37.088C78.5255 36.6827 79.0069 36.48 79.5642 36.48H91.5722C92.0789 36.48 92.5349 36.6827 92.9402 37.088C93.3455 37.4427 93.5482 37.8987 93.5482 38.456V74.024C93.5482 74.5813 93.3455 75.0627 92.9402 75.468C92.5349 75.8227 92.0789 76 91.5722 76H80.4762C79.9189 76 79.4375 75.8227 79.0322 75.468C78.6775 75.0627 78.5002 74.5813 78.5002 74.024V71.288C77.2335 73.1627 75.5109 74.556 73.3322 75.468C71.1535 76.3293 68.6709 76.76 65.8842 76.76ZM103.369 76C102.812 76 102.331 75.8227 101.925 75.468C101.571 75.0627 101.393 74.5813 101.393 74.024V38.456C101.393 37.8987 101.571 37.4427 101.925 37.088C102.331 36.6827 102.812 36.48 103.369 36.48H114.389C114.947 36.48 115.403 36.6827 115.757 37.088C116.163 37.4427 116.365 37.8987 116.365 38.456V41.192C117.683 39.672 119.431 38.38 121.609 37.316C123.788 36.252 126.271 35.72 129.057 35.72C131.793 35.72 134.276 36.3533 136.505 37.62C138.735 38.8867 140.533 40.7867 141.901 43.32C143.269 45.8533 143.953 49.0453 143.953 52.896V74.024C143.953 74.5813 143.751 75.0627 143.345 75.468C142.94 75.8227 142.459 76 141.901 76H129.893C129.336 76 128.855 75.8227 128.449 75.468C128.095 75.0627 127.917 74.5813 127.917 74.024V53.428C127.917 51.5533 127.461 50.1093 126.549 49.096C125.637 48.0827 124.345 47.576 122.673 47.576C121.001 47.576 119.684 48.0827 118.721 49.096C117.759 50.1093 117.277 51.5533 117.277 53.428V74.024C117.277 74.5813 117.075 75.0627 116.669 75.468C116.315 75.8227 115.859 76 115.301 76H103.369ZM170.569 76.76C166.769 76.76 163.349 76.1013 160.309 74.784C157.32 73.416 154.913 71.44 153.089 68.856C151.316 66.2213 150.328 63.0547 150.125 59.356C150.074 58.5453 150.049 57.532 150.049 56.316C150.049 55.1 150.074 54.0613 150.125 53.2C150.328 49.4507 151.316 46.284 153.089 43.7C154.862 41.0653 157.269 39.0893 160.309 37.772C163.349 36.404 166.769 35.72 170.569 35.72C174.318 35.72 177.51 36.252 180.145 37.316C182.83 38.38 184.984 39.6973 186.605 41.268C188.277 42.8387 189.518 44.4093 190.329 45.98C191.14 47.5507 191.57 48.868 191.621 49.932C191.672 50.4893 191.469 50.9707 191.013 51.376C190.608 51.7813 190.152 51.984 189.645 51.984H177.409C176.852 51.984 176.421 51.8573 176.117 51.604C175.813 51.3 175.534 50.8947 175.281 50.388C174.774 49.2733 174.192 48.4627 173.533 47.956C172.874 47.3987 171.988 47.12 170.873 47.12C169.302 47.12 168.137 47.6773 167.377 48.792C166.617 49.856 166.212 51.452 166.161 53.58C166.06 55.708 166.06 57.5067 166.161 58.976C166.262 61.1547 166.668 62.776 167.377 63.84C168.137 64.8533 169.302 65.36 170.873 65.36C172.14 65.36 173.077 65.1067 173.685 64.6C174.293 64.0427 174.825 63.2067 175.281 62.092C175.484 61.5853 175.737 61.2053 176.041 60.952C176.396 60.648 176.852 60.496 177.409 60.496H189.645C190.152 60.496 190.608 60.6987 191.013 61.104C191.469 61.5093 191.672 61.9907 191.621 62.548C191.57 63.2573 191.292 64.22 190.785 65.436C190.329 66.6013 189.594 67.8427 188.581 69.16C187.618 70.4267 186.326 71.6427 184.705 72.808C183.084 73.9733 181.108 74.936 178.777 75.696C176.446 76.4053 173.71 76.76 170.569 76.76ZM199.483 76C198.925 76 198.444 75.8227 198.039 75.468C197.684 75.0627 197.507 74.5813 197.507 74.024V24.016C197.507 23.4587 197.684 23.0027 198.039 22.648C198.444 22.2427 198.925 22.04 199.483 22.04H211.795C212.301 22.04 212.757 22.2427 213.163 22.648C213.568 23.0027 213.771 23.4587 213.771 24.016V40.66C215.088 39.14 216.735 37.9493 218.711 37.088C220.737 36.176 223.017 35.72 225.551 35.72C228.287 35.72 230.795 36.3533 233.075 37.62C235.405 38.8867 237.255 40.7867 238.623 43.32C240.041 45.8533 240.751 49.0453 240.751 52.896V74.024C240.751 74.5813 240.548 75.0627 240.143 75.468C239.737 75.8227 239.281 76 238.775 76H226.387C225.829 76 225.348 75.8227 224.943 75.468C224.588 75.0627 224.411 74.5813 224.411 74.024V53.428C224.411 51.5533 223.955 50.1093 223.043 49.096C222.131 48.0827 220.839 47.576 219.167 47.576C217.495 47.576 216.177 48.0827 215.215 49.096C214.252 50.1093 213.771 51.5533 213.771 53.428V74.024C213.771 74.5813 213.568 75.0627 213.163 75.468C212.757 75.8227 212.301 76 211.795 76H199.483ZM274.418 76.76C271.682 76.76 269.377 76.3293 267.502 75.468C265.678 74.556 264.133 73.3653 262.866 71.896V74.024C262.866 74.5813 262.663 75.0627 262.258 75.468C261.903 75.8227 261.447 76 260.89 76H250.174C249.617 76 249.135 75.8227 248.73 75.468C248.375 75.0627 248.198 74.5813 248.198 74.024V24.016C248.198 23.4587 248.375 23.0027 248.73 22.648C249.135 22.2427 249.617 22.04 250.174 22.04H261.878C262.385 22.04 262.841 22.2427 263.246 22.648C263.651 23.0027 263.854 23.4587 263.854 24.016V39.748C265.07 38.532 266.539 37.5693 268.262 36.86C270.035 36.1 272.087 35.72 274.418 35.72C276.799 35.72 278.953 36.1253 280.878 36.936C282.803 37.696 284.475 38.8107 285.894 40.28C287.313 41.7493 288.427 43.5987 289.238 45.828C290.049 48.0067 290.505 50.5147 290.606 53.352C290.657 54.416 290.682 55.3533 290.682 56.164C290.682 56.9747 290.657 57.9373 290.606 59.052C290.454 62.0413 289.973 64.6507 289.162 66.88C288.351 69.1093 287.237 70.9587 285.818 72.428C284.399 73.8973 282.727 74.9867 280.802 75.696C278.927 76.4053 276.799 76.76 274.418 76.76ZM269.25 64.904C270.567 64.904 271.581 64.6507 272.29 64.144C273.05 63.5867 273.582 62.852 273.886 61.94C274.241 60.9773 274.469 59.888 274.57 58.672C274.722 57.0507 274.722 55.4293 274.57 53.808C274.469 52.592 274.241 51.528 273.886 50.616C273.582 49.6533 273.05 48.9187 272.29 48.412C271.581 47.8547 270.567 47.576 269.25 47.576C267.983 47.576 266.97 47.8293 266.21 48.336C265.45 48.8427 264.867 49.5013 264.462 50.312C264.107 51.1227 263.905 52.06 263.854 53.124C263.803 54.188 263.778 55.1253 263.778 55.936C263.778 56.7467 263.803 57.7093 263.854 58.824C263.905 59.9387 264.082 60.952 264.386 61.864C264.741 62.776 265.298 63.5107 266.058 64.068C266.869 64.6253 267.933 64.904 269.25 64.904ZM317.167 76.76C312.708 76.76 308.934 76.1013 305.843 74.784C302.803 73.4667 300.472 71.5413 298.851 69.008C297.23 66.424 296.318 63.3333 296.115 59.736C296.064 58.672 296.039 57.5067 296.039 56.24C296.039 54.9733 296.064 53.808 296.115 52.744C296.318 49.096 297.28 46.0053 299.003 43.472C300.726 40.9387 303.107 39.0133 306.147 37.696C309.238 36.3787 312.911 35.72 317.167 35.72C321.423 35.72 325.071 36.3787 328.111 37.696C331.202 39.0133 333.608 40.9387 335.331 43.472C337.054 46.0053 338.016 49.096 338.219 52.744C338.32 53.808 338.371 54.9733 338.371 56.24C338.371 57.5067 338.32 58.672 338.219 59.736C338.016 63.3333 337.104 66.424 335.483 69.008C333.862 71.5413 331.506 73.4667 328.415 74.784C325.375 76.1013 321.626 76.76 317.167 76.76ZM317.167 66.044C319.042 66.044 320.334 65.4867 321.043 64.372C321.752 63.2573 322.158 61.5853 322.259 59.356C322.31 58.596 322.335 57.5573 322.335 56.24C322.335 54.9227 322.31 53.884 322.259 53.124C322.158 50.9453 321.752 49.2987 321.043 48.184C320.334 47.0187 319.042 46.436 317.167 46.436C315.343 46.436 314.076 47.0187 313.367 48.184C312.658 49.2987 312.227 50.9453 312.075 53.124C312.024 53.884 311.999 54.9227 311.999 56.24C311.999 57.5573 312.024 58.596 312.075 59.356C312.227 61.5853 312.658 63.2573 313.367 64.372C314.076 65.4867 315.343 66.044 317.167 66.044ZM341.828 76C341.322 76 340.891 75.8227 340.536 75.468C340.232 75.1133 340.08 74.708 340.08 74.252C340.08 74.1 340.106 73.9227 340.156 73.72C340.207 73.5173 340.308 73.3147 340.46 73.112L352.924 55.632L341.676 39.368C341.575 39.216 341.474 39.0387 341.372 38.836C341.322 38.6333 341.296 38.4307 341.296 38.228C341.296 37.772 341.474 37.3667 341.828 37.012C342.183 36.6573 342.588 36.48 343.044 36.48H354.672C355.382 36.48 355.914 36.6573 356.268 37.012C356.623 37.316 356.876 37.5947 357.028 37.848L362.728 46.132L368.428 37.848C368.631 37.5947 368.884 37.316 369.188 37.012C369.543 36.6573 370.075 36.48 370.784 36.48H381.88C382.336 36.48 382.742 36.6573 383.096 37.012C383.451 37.3667 383.628 37.7467 383.628 38.152C383.628 38.4053 383.603 38.6333 383.552 38.836C383.502 39.0387 383.4 39.216 383.248 39.368L371.772 55.632L384.464 73.112C384.616 73.3147 384.718 73.5173 384.768 73.72C384.819 73.9227 384.844 74.1 384.844 74.252C384.844 74.708 384.667 75.1133 384.312 75.468C383.958 75.8227 383.552 76 383.096 76H370.936C370.278 76 369.796 75.848 369.492 75.544C369.188 75.24 368.935 74.9613 368.732 74.708L362.424 65.892L355.888 74.708C355.736 74.9613 355.483 75.24 355.128 75.544C354.824 75.848 354.343 76 353.684 76H341.828ZM391.257 76C390.699 76 390.218 75.8227 389.813 75.468C389.458 75.0627 389.281 74.5813 389.281 74.024V62.624C389.281 62.0667 389.458 61.5853 389.813 61.18C390.218 60.7747 390.699 60.572 391.257 60.572H402.657C403.214 60.572 403.695 60.7747 404.101 61.18C404.506 61.5853 404.709 62.0667 404.709 62.624V74.024C404.709 74.5813 404.506 75.0627 404.101 75.468C403.695 75.8227 403.214 76 402.657 76H391.257ZM414.198 76C413.64 76 413.159 75.8227 412.754 75.468C412.399 75.0627 412.222 74.5813 412.222 74.024V38.456C412.222 37.8987 412.399 37.4427 412.754 37.088C413.159 36.6827 413.64 36.48 414.198 36.48H425.218C425.775 36.48 426.231 36.6827 426.586 37.088C426.991 37.4427 427.194 37.8987 427.194 38.456V41.268C428.714 39.7987 430.436 38.6333 432.362 37.772C434.338 36.9107 436.491 36.48 438.822 36.48H442.242C442.799 36.48 443.28 36.6827 443.686 37.088C444.091 37.4427 444.294 37.8987 444.294 38.456V48.26C444.294 48.8173 444.091 49.2987 443.686 49.704C443.28 50.1093 442.799 50.312 442.242 50.312H433.73C431.906 50.312 430.512 50.7933 429.55 51.756C428.587 52.668 428.106 54.036 428.106 55.86V74.024C428.106 74.5813 427.903 75.0627 427.498 75.468C427.143 75.8227 426.687 76 426.13 76H414.198ZM463.622 76.76C460.886 76.76 458.378 76.1267 456.098 74.86C453.869 73.5933 452.096 71.6933 450.778 69.16C449.461 66.6267 448.802 63.4347 448.802 59.584V38.456C448.802 37.8987 448.98 37.4427 449.334 37.088C449.74 36.6827 450.221 36.48 450.778 36.48H462.786C463.344 36.48 463.8 36.6827 464.154 37.088C464.56 37.4427 464.762 37.8987 464.762 38.456V59.052C464.762 62.9533 466.51 64.904 470.006 64.904C471.678 64.904 472.97 64.3973 473.882 63.384C474.845 62.3707 475.326 60.9267 475.326 59.052V38.456C475.326 37.8987 475.504 37.4427 475.858 37.088C476.264 36.6827 476.745 36.48 477.302 36.48H489.31C489.817 36.48 490.273 36.6827 490.678 37.088C491.084 37.4427 491.286 37.8987 491.286 38.456V74.024C491.286 74.5813 491.084 75.0627 490.678 75.468C490.273 75.8227 489.817 76 489.31 76H478.214C477.657 76 477.176 75.8227 476.77 75.468C476.416 75.0627 476.238 74.5813 476.238 74.024V71.288C474.972 73.1627 473.249 74.556 471.07 75.468C468.892 76.3293 466.409 76.76 463.622 76.76Z" fill="white"/>
</svg>
