<svg width="500" height="100" viewBox="0 0 500 100" fill="none" xmlns="http://www.w3.org/2000/svg">
<path d="M25.44 77.8C22.1333 77.8 19.28 77.4267 16.88 76.68C14.5333 75.88 12.6133 74.92 11.12 73.8C9.68 72.68 8.58667 71.56 7.84 70.44C7.14667 69.2667 6.77333 68.28 6.72 67.48C6.66667 66.8933 6.85333 66.4133 7.28 66.04C7.70667 65.6667 8.13333 65.48 8.56 65.48H16.32C16.48 65.48 16.64 65.5067 16.8 65.56C16.96 65.6133 17.12 65.7467 17.28 65.96C17.9733 66.44 18.6933 67 19.44 67.64C20.1867 68.2267 21.04 68.7333 22 69.16C23.0133 69.5867 24.2667 69.8 25.76 69.8C27.52 69.8 29.0133 69.4533 30.24 68.76C31.4667 68.0133 32.08 66.9733 32.08 65.64C32.08 64.68 31.7867 63.88 31.2 63.24C30.6667 62.6 29.6267 62.0133 28.08 61.48C26.5333 60.9467 24.24 60.36 21.2 59.72C18.32 59.08 15.8667 58.2267 13.84 57.16C11.8133 56.0933 10.2933 54.76 9.28 53.16C8.26667 51.5067 7.76 49.5333 7.76 47.24C7.76 45.16 8.4 43.16 9.68 41.24C11.0133 39.32 12.96 37.7467 15.52 36.52C18.08 35.24 21.28 34.6 25.12 34.6C28.0533 34.6 30.6133 34.9733 32.8 35.72C35.04 36.4133 36.9067 37.32 38.4 38.44C39.8933 39.5067 41.0133 40.6267 41.76 41.8C42.56 42.92 42.9867 43.9067 43.04 44.76C43.0933 45.2933 42.9333 45.7467 42.56 46.12C42.1867 46.4933 41.76 46.68 41.28 46.68H34.16C33.8933 46.68 33.6533 46.6533 33.44 46.6C33.2267 46.4933 33.04 46.36 32.88 46.2C32.24 45.7733 31.5733 45.2933 30.88 44.76C30.24 44.1733 29.4667 43.6667 28.56 43.24C27.6533 42.8133 26.48 42.6 25.04 42.6C23.28 42.6 21.92 43 20.96 43.8C20.0533 44.5467 19.6 45.5067 19.6 46.68C19.6 47.4267 19.84 48.12 20.32 48.76C20.8 49.4 21.7867 49.9867 23.28 50.52C24.7733 51.0533 27.04 51.6133 30.08 52.2C33.7067 52.84 36.5867 53.8 38.72 55.08C40.8533 56.36 42.3733 57.8533 43.28 59.56C44.24 61.2133 44.72 63 44.72 64.92C44.72 67.4267 43.9733 69.6667 42.48 71.64C40.9867 73.56 38.8 75.08 35.92 76.2C33.0933 77.2667 29.6 77.8 25.44 77.8ZM67.6794 77.8C64.586 77.8 61.8394 77.1067 59.4394 75.72C57.0927 74.28 55.2527 72.2267 53.9194 69.56C52.6394 66.84 51.9994 63.56 51.9994 59.72V37.4C51.9994 36.8133 52.186 36.3333 52.5594 35.96C52.9327 35.5867 53.386 35.4 53.9194 35.4H62.3994C62.986 35.4 63.466 35.5867 63.8394 35.96C64.2127 36.3333 64.3994 36.8133 64.3994 37.4V59.24C64.3994 65.2133 67.0127 68.2 72.2394 68.2C74.746 68.2 76.7194 67.4267 78.1594 65.88C79.6527 64.28 80.3994 62.0667 80.3994 59.24V37.4C80.3994 36.8133 80.586 36.3333 80.9594 35.96C81.3327 35.5867 81.8127 35.4 82.3994 35.4H90.8794C91.4127 35.4 91.866 35.5867 92.2394 35.96C92.6127 36.3333 92.7994 36.8133 92.7994 37.4V75C92.7994 75.5867 92.6127 76.0667 92.2394 76.44C91.866 76.8133 91.4127 77 90.8794 77H83.0394C82.4527 77 81.9727 76.8133 81.5994 76.44C81.226 76.0667 81.0394 75.5867 81.0394 75V71.88C79.6527 73.8 77.866 75.2667 75.6794 76.28C73.4927 77.2933 70.826 77.8 67.6794 77.8ZM104.788 77C104.255 77 103.801 76.8133 103.428 76.44C103.055 76.0667 102.868 75.5867 102.868 75V37.4C102.868 36.8133 103.055 36.3333 103.428 35.96C103.801 35.5867 104.255 35.4 104.788 35.4H112.628C113.215 35.4 113.695 35.5867 114.068 35.96C114.441 36.3333 114.628 36.8133 114.628 37.4V40.52C116.015 38.8133 117.801 37.4 119.988 36.28C122.175 35.16 124.841 34.6 127.988 34.6C131.135 34.6 133.881 35.32 136.228 36.76C138.628 38.1467 140.495 40.2 141.828 42.92C143.215 45.5867 143.908 48.84 143.908 52.68V75C143.908 75.5867 143.695 76.0667 143.268 76.44C142.895 76.8133 142.441 77 141.908 77H133.428C132.841 77 132.361 76.8133 131.988 76.44C131.615 76.0667 131.428 75.5867 131.428 75V53.16C131.428 50.3333 130.735 48.1467 129.348 46.6C128.015 45 126.041 44.2 123.428 44.2C120.921 44.2 118.921 45 117.428 46.6C115.935 48.1467 115.188 50.3333 115.188 53.16V75C115.188 75.5867 115.001 76.0667 114.628 76.44C114.255 76.8133 113.801 77 113.268 77H104.788ZM171.973 77.8C168.08 77.8 164.64 77.08 161.653 75.64C158.72 74.2 156.4 72.12 154.693 69.4C152.986 66.6267 152.053 63.32 151.893 59.48C151.84 58.6267 151.813 57.56 151.813 56.28C151.813 54.9467 151.84 53.8533 151.893 53C152.053 49.1067 152.96 45.8 154.613 43.08C156.32 40.3067 158.666 38.2 161.653 36.76C164.64 35.32 168.08 34.6 171.973 34.6C175.546 34.6 178.586 35.1067 181.093 36.12C183.6 37.08 185.653 38.3067 187.253 39.8C188.853 41.2933 190.026 42.8667 190.773 44.52C191.573 46.12 192 47.5333 192.053 48.76C192.106 49.2933 191.92 49.7733 191.493 50.2C191.12 50.5733 190.666 50.76 190.133 50.76H181.573C181.04 50.76 180.613 50.6267 180.293 50.36C180.026 50.04 179.76 49.6133 179.493 49.08C178.746 47.2133 177.786 45.88 176.613 45.08C175.44 44.28 173.973 43.88 172.213 43.88C169.813 43.88 167.92 44.6533 166.533 46.2C165.146 47.7467 164.4 50.1467 164.293 53.4C164.24 55.48 164.24 57.3733 164.293 59.08C164.453 62.3867 165.2 64.7867 166.533 66.28C167.92 67.7733 169.813 68.52 172.213 68.52C174.08 68.52 175.573 68.12 176.693 67.32C177.813 66.52 178.746 65.1867 179.493 63.32C179.706 62.7867 179.973 62.3867 180.293 62.12C180.613 61.8 181.04 61.64 181.573 61.64H190.133C190.666 61.64 191.12 61.8533 191.493 62.28C191.92 62.6533 192.106 63.1067 192.053 63.64C192 64.5467 191.733 65.6133 191.253 66.84C190.826 68.0667 190.106 69.32 189.093 70.6C188.133 71.88 186.88 73.08 185.333 74.2C183.786 75.2667 181.893 76.1467 179.653 76.84C177.466 77.48 174.906 77.8 171.973 77.8ZM201.899 77C201.313 77 200.833 76.8133 200.459 76.44C200.086 76.0667 199.899 75.5867 199.899 75V22.2C199.899 21.6133 200.086 21.1333 200.459 20.76C200.833 20.3867 201.313 20.2 201.899 20.2H210.539C211.073 20.2 211.526 20.3867 211.899 20.76C212.273 21.1333 212.459 21.6133 212.459 22.2V40.2C213.899 38.4933 215.659 37.1333 217.739 36.12C219.819 35.1067 222.326 34.6 225.259 34.6C228.406 34.6 231.179 35.32 233.579 36.76C236.033 38.1467 237.953 40.2 239.339 42.92C240.726 45.5867 241.419 48.84 241.419 52.68V75C241.419 75.5867 241.233 76.0667 240.859 76.44C240.486 76.8133 240.006 77 239.419 77H230.699C230.166 77 229.713 76.8133 229.339 76.44C228.966 76.0667 228.779 75.5867 228.779 75V53.16C228.779 50.3333 228.086 48.1467 226.699 46.6C225.313 45 223.339 44.2 220.779 44.2C218.273 44.2 216.246 45 214.699 46.6C213.206 48.1467 212.459 50.3333 212.459 53.16V75C212.459 75.5867 212.273 76.0667 211.899 76.44C211.526 76.8133 211.073 77 210.539 77H201.899ZM275.153 77.8C272.113 77.8 269.58 77.2933 267.553 76.28C265.526 75.2133 263.873 73.88 262.593 72.28V75C262.593 75.5867 262.406 76.0667 262.033 76.44C261.66 76.8133 261.18 77 260.593 77H252.993C252.406 77 251.926 76.8133 251.553 76.44C251.18 76.0667 250.993 75.5867 250.993 75V22.2C250.993 21.6133 251.18 21.1333 251.553 20.76C251.926 20.3867 252.406 20.2 252.993 20.2H261.233C261.766 20.2 262.22 20.3867 262.593 20.76C262.966 21.1333 263.153 21.6133 263.153 22.2V39.64C264.486 38.1467 266.14 36.9467 268.113 36.04C270.086 35.08 272.433 34.6 275.153 34.6C277.926 34.6 280.326 35.08 282.353 36.04C284.433 36.9467 286.193 38.2533 287.633 39.96C289.073 41.6133 290.166 43.5867 290.913 45.88C291.713 48.1733 292.14 50.7067 292.193 53.48C292.246 54.44 292.273 55.3467 292.273 56.2C292.273 57 292.246 57.9067 292.193 58.92C292.086 61.7467 291.633 64.3333 290.833 66.68C290.086 68.9733 288.993 70.9733 287.553 72.68C286.166 74.3333 284.433 75.6133 282.353 76.52C280.326 77.3733 277.926 77.8 275.153 77.8ZM271.553 68.2C273.58 68.2 275.18 67.7733 276.353 66.92C277.526 66.0133 278.353 64.84 278.833 63.4C279.366 61.96 279.686 60.3867 279.793 58.68C279.9 57.0267 279.9 55.3733 279.793 53.72C279.686 52.0133 279.366 50.44 278.833 49C278.353 47.56 277.526 46.4133 276.353 45.56C275.18 44.6533 273.58 44.2 271.553 44.2C269.633 44.2 268.06 44.6267 266.833 45.48C265.66 46.3333 264.753 47.4267 264.113 48.76C263.526 50.04 263.206 51.4267 263.153 52.92C263.1 53.88 263.073 54.8667 263.073 55.88C263.073 56.8933 263.1 57.9067 263.153 58.92C263.26 60.52 263.58 62.0133 264.113 63.4C264.646 64.7867 265.526 65.9333 266.753 66.84C267.98 67.7467 269.58 68.2 271.553 68.2ZM319.799 77.8C315.372 77.8 311.665 77.08 308.679 75.64C305.692 74.1467 303.399 72.04 301.799 69.32C300.252 66.6 299.399 63.4267 299.239 59.8C299.185 58.7333 299.159 57.5333 299.159 56.2C299.159 54.8133 299.185 53.6133 299.239 52.6C299.399 48.92 300.305 45.7467 301.959 43.08C303.612 40.36 305.932 38.28 308.919 36.84C311.905 35.3467 315.532 34.6 319.799 34.6C324.012 34.6 327.612 35.3467 330.599 36.84C333.585 38.28 335.905 40.36 337.559 43.08C339.212 45.7467 340.119 48.92 340.279 52.6C340.385 53.6133 340.439 54.8133 340.439 56.2C340.439 57.5333 340.385 58.7333 340.279 59.8C340.119 63.4267 339.239 66.6 337.639 69.32C336.092 72.04 333.825 74.1467 330.839 75.64C327.852 77.08 324.172 77.8 319.799 77.8ZM319.799 69C322.412 69 324.385 68.2 325.719 66.6C327.052 64.9467 327.772 62.5467 327.879 59.4C327.932 58.6 327.959 57.5333 327.959 56.2C327.959 54.8667 327.932 53.8 327.879 53C327.772 49.9067 327.052 47.5333 325.719 45.88C324.385 44.2267 322.412 43.4 319.799 43.4C317.185 43.4 315.185 44.2267 313.799 45.88C312.465 47.5333 311.745 49.9067 311.639 53C311.585 53.8 311.559 54.8667 311.559 56.2C311.559 57.5333 311.585 58.6 311.639 59.4C311.745 62.5467 312.465 64.9467 313.799 66.6C315.185 68.2 317.185 69 319.799 69ZM345.639 77C345.159 77 344.733 76.84 344.359 76.52C344.039 76.1467 343.879 75.72 343.879 75.24C343.879 75.08 343.906 74.8933 343.959 74.68C344.066 74.4133 344.199 74.1733 344.359 73.96L357.879 55.64L345.479 38.44C345.319 38.2267 345.186 38.0133 345.079 37.8C345.026 37.5867 344.999 37.3733 344.999 37.16C344.999 36.68 345.159 36.28 345.479 35.96C345.853 35.5867 346.279 35.4 346.759 35.4H355.079C355.719 35.4 356.199 35.56 356.519 35.88C356.893 36.2 357.159 36.4933 357.319 36.76L365.559 47.96L373.799 36.84C374.013 36.5733 374.279 36.28 374.599 35.96C374.919 35.5867 375.426 35.4 376.119 35.4H384.039C384.519 35.4 384.919 35.5867 385.239 35.96C385.613 36.28 385.799 36.68 385.799 37.16C385.799 37.3733 385.773 37.5867 385.719 37.8C385.666 38.0133 385.533 38.2267 385.319 38.44L372.679 55.72L386.359 73.96C386.519 74.1733 386.626 74.3867 386.679 74.6C386.786 74.8133 386.839 75.0267 386.839 75.24C386.839 75.72 386.653 76.1467 386.279 76.52C385.959 76.84 385.559 77 385.079 77H376.359C375.773 77 375.319 76.8667 374.999 76.6C374.679 76.28 374.413 75.9867 374.199 75.72L365.319 63.88L356.279 75.72C356.119 75.9333 355.879 76.2 355.559 76.52C355.239 76.84 354.759 77 354.119 77H345.639ZM394.935 77C394.348 77 393.868 76.8133 393.495 76.44C393.122 76.0667 392.935 75.5867 392.935 75V66.04C392.935 65.4533 393.122 64.9733 393.495 64.6C393.868 64.2267 394.348 64.04 394.935 64.04H403.895C404.482 64.04 404.962 64.2267 405.335 64.6C405.708 64.9733 405.895 65.4533 405.895 66.04V75C405.895 75.5867 405.708 76.0667 405.335 76.44C404.962 76.8133 404.482 77 403.895 77H394.935ZM417.444 77C416.911 77 416.458 76.8133 416.084 76.44C415.711 76.0667 415.524 75.5867 415.524 75V37.4C415.524 36.8667 415.711 36.4133 416.084 36.04C416.458 35.6133 416.911 35.4 417.444 35.4H425.284C425.818 35.4 426.271 35.6133 426.644 36.04C427.071 36.4133 427.284 36.8667 427.284 37.4V40.6C428.618 38.9467 430.244 37.6667 432.164 36.76C434.138 35.8533 436.404 35.4 438.964 35.4H442.404C442.938 35.4 443.391 35.5867 443.764 35.96C444.138 36.3333 444.324 36.8133 444.324 37.4V44.28C444.324 44.8667 444.138 45.3467 443.764 45.72C443.391 46.0933 442.938 46.28 442.404 46.28H435.364C433.018 46.28 431.178 46.9467 429.844 48.28C428.511 49.56 427.844 51.4 427.844 53.8V75C427.844 75.5867 427.658 76.0667 427.284 76.44C426.911 76.8133 426.431 77 425.844 77H417.444ZM465.57 77.8C462.477 77.8 459.73 77.1067 457.33 75.72C454.983 74.28 453.143 72.2267 451.81 69.56C450.53 66.84 449.89 63.56 449.89 59.72V37.4C449.89 36.8133 450.077 36.3333 450.45 35.96C450.823 35.5867 451.277 35.4 451.81 35.4H460.29C460.877 35.4 461.357 35.5867 461.73 35.96C462.103 36.3333 462.29 36.8133 462.29 37.4V59.24C462.29 65.2133 464.903 68.2 470.13 68.2C472.637 68.2 474.61 67.4267 476.05 65.88C477.543 64.28 478.29 62.0667 478.29 59.24V37.4C478.29 36.8133 478.477 36.3333 478.85 35.96C479.223 35.5867 479.703 35.4 480.29 35.4H488.77C489.303 35.4 489.757 35.5867 490.13 35.96C490.503 36.3333 490.69 36.8133 490.69 37.4V75C490.69 75.5867 490.503 76.0667 490.13 76.44C489.757 76.8133 489.303 77 488.77 77H480.93C480.343 77 479.863 76.8133 479.49 76.44C479.117 76.0667 478.93 75.5867 478.93 75V71.88C477.543 73.8 475.757 75.2667 473.57 76.28C471.383 77.2933 468.717 77.8 465.57 77.8Z" fill="black"/>
</svg>
